<svg width="103" height="44" viewBox="0 0 103 44" fill="none" xmlns="http://www.w3.org/2000/svg">
<path d="M18.4048 18.0799C16.0995 17.6884 14.2428 17.3839 14.2394 16.0454C14.2359 14.9545 15.1332 14.3086 16.4722 14.3053C17.9872 14.2986 19.0294 14.9946 19.0363 16.4971L26.8598 16.4703C26.746 11.7053 22.7324 8.533 16.555 8.55307C10.3397 8.57315 6.20532 11.6316 6.22257 16.3465C6.24328 22.0519 11.2335 23.1361 14.9951 23.7116C17.328 24.0764 19.164 24.4579 19.1709 25.8164C19.1744 27.0311 18.0183 27.6402 16.7966 27.6435C15.2126 27.6502 13.9736 26.8605 13.9667 25.1405L5.92578 25.1673C6.01896 30.2636 10.0498 33.6367 16.662 33.6132C23.1086 33.5931 27.3775 30.3607 27.3568 25.445C27.3361 19.482 22.2389 18.7257 18.4048 18.0765V18.0799Z" fill="#212121"/>
<path d="M38.5423 9.38253L30.5566 9.4082L30.6366 32.7851L38.6223 32.7594L38.5423 9.38253Z" fill="#212121"/>
<path d="M83.6361 8.55298C80.6372 8.56302 78.2352 9.23227 75.923 10.6678L75.2432 9.249L69.6387 9.26908L69.718 32.6461L77.7038 32.6193L77.6589 19.7195C77.6486 16.8584 79.0738 15.1652 81.5655 15.1585C83.574 15.1518 84.5921 16.4468 84.6024 19.0636L84.6473 32.5959L92.633 32.5691L92.5847 17.966C92.564 12.2372 89.0129 8.53959 83.6292 8.55632L83.6361 8.55298Z" fill="#212121"/>
<path d="M60.7519 9.29917L60.0272 10.6644C58.4604 9.65053 56.6244 8.99466 54.6435 8.81397C54.2674 8.77716 53.8878 8.75708 53.4978 8.75708C46.9753 8.75708 41.6918 13.8802 41.6918 20.2046C41.6918 24.8827 44.5872 28.9049 48.7388 30.6751C50.1951 31.3008 51.8068 31.6455 53.4978 31.6455C55.2992 31.6455 57.0075 31.254 58.5363 30.5513C58.3569 33.0108 56.2931 35.0687 53.7394 35.0788C51.8033 35.0855 49.819 34.2824 49.2599 32.7832L41.5537 32.8067C42.6408 38.1339 47.2548 41.3363 53.836 41.3129C61.4939 41.2861 66.2494 36.3336 66.2218 29.2697L66.1528 9.28244L60.7519 9.30252V9.29917ZM64.479 19.9236C58.4431 19.9236 53.5496 24.6686 53.5496 30.5212C53.5496 24.6686 48.656 19.9236 42.6201 19.9236C48.656 19.9236 53.5496 15.1786 53.5496 9.32594C53.5496 15.1786 58.4431 19.9236 64.479 19.9236Z" fill="#212121"/>
<path d="M70.2945 34.9651H69.877V36.5512H70.3049C70.7811 36.5512 71.0572 36.2668 71.0572 35.7515C71.0572 35.2361 70.7777 34.9651 70.2911 34.9651H70.2945ZM70.2773 36.3538H70.1289V35.1625H70.2773C70.6189 35.1625 70.8018 35.3566 70.8018 35.7515C70.8018 36.1463 70.6189 36.3538 70.2773 36.3538Z" fill="#212121"/>
<path d="M72.2233 34.965C72.2233 34.8646 72.1439 34.791 72.0369 34.791C71.93 34.791 71.8506 34.8613 71.8506 34.965C71.8506 35.0688 71.93 35.1357 72.0369 35.1357C72.1439 35.1357 72.2233 35.0688 72.2233 34.965Z" fill="#212121"/>
<path d="M71.3887 35.5608H71.9339V36.5513H72.1824V35.3667H71.3887V35.5608Z" fill="#212121"/>
<path d="M73.6139 36.3872H73.3516C73.1963 36.3872 73.1101 36.3471 73.1101 36.2634C73.1101 36.2132 73.1411 36.1731 73.1963 36.1396C73.2619 36.1664 73.3344 36.1798 73.3931 36.1798C73.6622 36.1798 73.8727 36.0325 73.8727 35.7749C73.8727 35.6879 73.8313 35.6075 73.783 35.5574H74.0798V35.37H73.576C73.5207 35.3499 73.4621 35.3398 73.3896 35.3398C73.1273 35.3398 72.8996 35.5005 72.8996 35.7648C72.8996 35.9054 72.9686 36.0124 73.0514 36.0727V36.0827C72.9617 36.1429 72.9065 36.2266 72.9065 36.3036C72.9065 36.404 72.9651 36.4642 73.0307 36.501V36.511C72.903 36.5813 72.834 36.6717 72.834 36.7687C72.834 36.9795 73.0479 37.0899 73.3931 37.0899C73.8141 37.0899 74.0833 36.8992 74.0833 36.6717C74.0833 36.4675 73.9245 36.3872 73.6105 36.3872H73.6139ZM73.3931 35.5072C73.5345 35.5072 73.6484 35.6075 73.6484 35.7615C73.6484 35.9154 73.5345 36.0191 73.3931 36.0191C73.2516 36.0191 73.1377 35.9221 73.1377 35.7615C73.1377 35.6009 73.255 35.5072 73.3931 35.5072ZM73.4207 36.9193C73.1791 36.9193 73.0445 36.849 73.0445 36.7352C73.0445 36.675 73.0825 36.6148 73.1825 36.5579C73.2343 36.5713 73.293 36.5746 73.3689 36.5746H73.5863C73.7589 36.5746 73.8486 36.6014 73.8486 36.7051C73.8486 36.8155 73.6829 36.9159 73.4241 36.9159L73.4207 36.9193Z" fill="#212121"/>
<path d="M75.181 36.5513V35.3667H74.3838V35.5608H74.9325V36.5513H75.181Z" fill="#212121"/>
<path d="M75.036 34.791C74.929 34.791 74.8496 34.8613 74.8496 34.965C74.8496 35.0688 74.929 35.1357 75.036 35.1357C75.1429 35.1357 75.2223 35.0688 75.2223 34.965C75.2223 34.8613 75.1429 34.791 75.036 34.791Z" fill="#212121"/>
<path d="M76.2023 34.9919L76.1713 35.3667L75.8262 35.38V35.5607H76.1644V36.0828C76.1644 36.3806 76.2852 36.5813 76.651 36.5813C76.8063 36.5813 76.9271 36.5479 77.0375 36.5111L76.9857 36.3337C76.9029 36.3638 76.8132 36.3839 76.7062 36.3839C76.4853 36.3839 76.4094 36.2869 76.4094 36.0828V35.5574H76.9857V35.3633H76.4094V34.9885H76.2023V34.9919Z" fill="#212121"/>
<path d="M77.3555 36.2399C77.3555 36.4474 77.5349 36.5812 77.7696 36.5812C77.9352 36.5812 78.1078 36.4976 78.2389 36.3972H78.2458L78.2665 36.5511H78.4736V35.8384C78.4736 35.5272 78.2976 35.3364 77.9629 35.3364C77.7523 35.3364 77.5487 35.4234 77.4107 35.5037L77.5073 35.6644C77.6281 35.5974 77.773 35.5305 77.9214 35.5305C78.1389 35.5305 78.2182 35.6476 78.2286 35.7949C77.6108 35.8384 77.3624 35.9722 77.3624 36.2366L77.3555 36.2399ZM78.2182 35.9521V36.2299C78.0905 36.3303 77.9663 36.3905 77.8352 36.3905C77.704 36.3905 77.5936 36.3403 77.5936 36.2232C77.5936 36.0826 77.7351 35.9889 78.2148 35.9555L78.2182 35.9521Z" fill="#212121"/>
<path d="M79.7328 36.3838C79.5982 36.3838 79.5015 36.3169 79.5015 36.1529V34.8345H78.832V35.0286H79.2531V36.1395C79.2531 36.4239 79.4015 36.5846 79.6741 36.5846C79.8121 36.5846 79.895 36.5611 80.0123 36.5143L79.9536 36.3336C79.8742 36.3671 79.8018 36.3838 79.7362 36.3838H79.7328Z" fill="#212121"/>
<path d="M70.2945 37.873H69.877V39.4592H70.3049C70.7811 39.4592 71.0572 39.1747 71.0572 38.6594C71.0572 38.1441 70.7777 37.873 70.2911 37.873H70.2945ZM70.2773 39.2617H70.1289V38.0705H70.2773C70.6189 38.0705 70.8018 38.2646 70.8018 38.6594C70.8018 39.0543 70.6189 39.2617 70.2773 39.2617Z" fill="#212121"/>
<path d="M71.9582 38.2443C71.6303 38.2443 71.3301 38.4786 71.3301 38.8634C71.3301 39.2482 71.6234 39.4858 71.9927 39.4858C72.179 39.4858 72.3412 39.4255 72.4689 39.3452L72.3827 39.1913C72.2722 39.2549 72.1618 39.295 72.0272 39.295C71.7891 39.295 71.62 39.1712 71.5889 38.9303H72.5103C72.5138 38.9002 72.5207 38.85 72.5207 38.7998C72.5207 38.4685 72.3171 38.241 71.9582 38.241V38.2443ZM71.9651 38.4317C72.1549 38.4317 72.2722 38.5455 72.2929 38.7563H71.5958C71.6372 38.5488 71.7856 38.4317 71.9685 38.4317H71.9651Z" fill="#212121"/>
<path d="M73.497 38.7564C73.2555 38.7062 73.1588 38.6694 73.1588 38.579C73.1588 38.4987 73.2279 38.4284 73.4108 38.4284C73.5592 38.4284 73.7007 38.4753 73.818 38.5489L73.9353 38.3983C73.8145 38.318 73.6282 38.2444 73.4349 38.2444C73.0967 38.2444 72.9138 38.3916 72.9138 38.589C72.9138 38.7664 73.0657 38.8768 73.3866 38.9404C73.6938 39.0006 73.7455 39.0542 73.7455 39.1378C73.7455 39.2282 73.6558 39.2985 73.4694 39.2985C73.2589 39.2985 73.0933 39.2382 72.9483 39.1445L72.8379 39.3018C72.9863 39.4022 73.2037 39.4858 73.4384 39.4858C73.7973 39.4858 73.9974 39.3219 73.9974 39.1245C73.9974 38.9404 73.8974 38.84 73.5005 38.7564H73.497Z" fill="#212121"/>
<path d="M75.036 37.699C74.929 37.699 74.8496 37.7692 74.8496 37.873C74.8496 37.9767 74.929 38.0436 75.036 38.0436C75.1429 38.0436 75.2223 37.9767 75.2223 37.873C75.2223 37.7692 75.1429 37.699 75.036 37.699Z" fill="#212121"/>
<path d="M74.3838 38.4687H74.9325V39.4592H75.181V38.2747H74.3838V38.4687Z" fill="#212121"/>
<path d="M76.6129 39.2918H76.3507C76.1954 39.2918 76.1091 39.2516 76.1091 39.168C76.1091 39.1178 76.1401 39.0776 76.1954 39.0441C76.2609 39.0709 76.3334 39.0843 76.3921 39.0843C76.6613 39.0843 76.8718 38.9371 76.8718 38.6794C76.8718 38.5924 76.8304 38.5121 76.782 38.4619H77.0788V38.2745H76.575C76.5198 38.2544 76.4611 38.2444 76.3886 38.2444C76.1263 38.2444 75.8986 38.405 75.8986 38.6694C75.8986 38.8099 75.9676 38.917 76.0504 38.9772V38.9873C75.9607 39.0475 75.9055 39.1311 75.9055 39.2081C75.9055 39.3085 75.9641 39.3687 76.0297 39.4055V39.4156C75.902 39.4858 75.833 39.5762 75.833 39.6732C75.833 39.8841 76.047 39.9945 76.3921 39.9945C76.8131 39.9945 77.0823 39.8037 77.0823 39.5762C77.0823 39.3721 76.9235 39.2918 76.6095 39.2918H76.6129ZM76.3886 38.415C76.5301 38.415 76.644 38.5154 76.644 38.6694C76.644 38.8233 76.5301 38.927 76.3886 38.927C76.2471 38.927 76.1332 38.83 76.1332 38.6694C76.1332 38.5087 76.2506 38.415 76.3886 38.415ZM76.4197 39.8272C76.1781 39.8272 76.0435 39.7569 76.0435 39.6431C76.0435 39.5829 76.0815 39.5227 76.1816 39.4658C76.2333 39.4792 76.292 39.4825 76.3679 39.4825H76.5853C76.7579 39.4825 76.8476 39.5093 76.8476 39.613C76.8476 39.7234 76.682 39.8238 76.4231 39.8238L76.4197 39.8272Z" fill="#212121"/>
<path d="M78.0661 38.2444C77.8763 38.2444 77.7383 38.3414 77.6175 38.4619H77.6071L77.5864 38.2745H77.3828V39.4591H77.6313V38.6426C77.759 38.5188 77.8487 38.4552 77.9798 38.4552C78.1628 38.4552 78.2318 38.5522 78.2318 38.7564V39.4591H78.4802V38.7229C78.4802 38.415 78.3491 38.2444 78.0627 38.2444H78.0661Z" fill="#212121"/>
<path d="M81.1549 38.5991L80.9341 38.5054C80.7891 38.4519 80.6476 38.4017 80.6476 38.2645C80.6476 38.134 80.765 38.057 80.9341 38.057C81.1032 38.057 81.2205 38.1105 81.331 38.1975L81.4621 38.0436C81.3344 37.9232 81.1515 37.8462 80.9479 37.8462C80.6235 37.8462 80.3957 38.0336 80.3957 38.2812C80.3957 38.5154 80.5786 38.6326 80.7477 38.6961L80.9789 38.7932C81.1411 38.8601 81.2619 38.9036 81.2619 39.0575C81.2619 39.1847 81.148 39.2784 80.941 39.2784C80.7615 39.2784 80.5993 39.2048 80.4716 39.091L80.3232 39.2583C80.4785 39.4022 80.6891 39.4925 80.9237 39.4925C81.2964 39.4925 81.5173 39.2851 81.5173 39.0308C81.5173 38.7999 81.3655 38.6828 81.1584 38.6058L81.1549 38.5991Z" fill="#212121"/>
<path d="M82.7013 39.2919C82.4804 39.2919 82.4045 39.1948 82.4045 38.9907V38.4653H82.9808V38.2713H82.4045V37.8965H82.1975L82.1664 38.2713L81.8213 38.2847V38.4653H82.1595V38.9874C82.1595 39.2852 82.2803 39.486 82.6461 39.486C82.8014 39.486 82.9222 39.4525 83.0326 39.4157L82.9808 39.2383C82.898 39.2685 82.8083 39.2885 82.7013 39.2885V39.2919Z" fill="#212121"/>
<path d="M84.1883 39.0845C84.0675 39.225 83.9743 39.2785 83.8466 39.2785C83.6637 39.2785 83.5913 39.1815 83.5913 38.9774V38.2747H83.3428V39.0108C83.3428 39.3187 83.4705 39.4894 83.7569 39.4894C83.9433 39.4894 84.0813 39.3957 84.2021 39.2618H84.2124L84.2331 39.4592H84.4402V38.2747H84.1917V39.0845H84.1883Z" fill="#212121"/>
<path d="M85.6926 38.1809L85.703 38.3884H85.6961C85.596 38.298 85.4856 38.2445 85.3441 38.2445C85.0611 38.2445 84.7988 38.4821 84.7988 38.8669C84.7988 39.2517 85.0093 39.4859 85.3234 39.4859C85.4683 39.4859 85.6098 39.4056 85.7065 39.3086H85.7134L85.7341 39.4558H85.9377V37.7358H85.6892V38.1775L85.6926 38.1809ZM85.6926 39.1279C85.596 39.235 85.4959 39.2852 85.3855 39.2852C85.1819 39.2852 85.0577 39.1346 85.0577 38.8635C85.0577 38.5925 85.213 38.4452 85.4028 38.4452C85.4994 38.4452 85.5926 38.4787 85.6926 38.5657V39.1245V39.1279Z" fill="#212121"/>
<path d="M87.0281 37.699C86.9212 37.699 86.8418 37.7692 86.8418 37.873C86.8418 37.9767 86.9212 38.0436 87.0281 38.0436C87.1351 38.0436 87.2145 37.9767 87.2145 37.873C87.2145 37.7692 87.1351 37.699 87.0281 37.699Z" fill="#212121"/>
<path d="M86.376 38.4687H86.9212V39.4592H87.1697V38.2747H86.376V38.4687Z" fill="#212121"/>
<path d="M88.4091 38.2444C88.0882 38.2444 87.8018 38.4719 87.8018 38.8668C87.8018 39.2616 88.0882 39.4858 88.4091 39.4858C88.7301 39.4858 89.0165 39.2583 89.0165 38.8668C89.0165 38.4753 88.7301 38.2444 88.4091 38.2444ZM88.4091 39.2884C88.1917 39.2884 88.0571 39.1211 88.0571 38.8668C88.0571 38.6125 88.1952 38.4418 88.4091 38.4418C88.6231 38.4418 88.7612 38.6125 88.7612 38.8668C88.7612 39.1211 88.6231 39.2884 88.4091 39.2884Z" fill="#212121"/>
<path d="M100.471 30.1832L99.4906 29.7816L100.478 29.3935C100.723 29.2964 100.84 29.0254 100.74 28.7878L100.588 28.4231C100.488 28.1855 100.208 28.0717 99.9634 28.1687L98.9764 28.5569L99.3905 27.6032C99.494 27.3656 99.3801 27.0946 99.1351 26.9942L98.7624 26.8403C98.5174 26.7399 98.2378 26.8503 98.1343 27.0879L97.7202 28.0382L97.3199 27.0812C97.2198 26.8436 96.9402 26.7298 96.6952 26.8269L96.3191 26.9741C96.074 27.0712 95.9567 27.3422 96.0568 27.5798L96.4571 28.5368L95.477 28.1353C95.232 28.0349 94.9524 28.1453 94.8489 28.3829L94.6902 28.7443C94.5866 28.9819 94.7005 29.2529 94.9455 29.3533L95.9256 29.7549L94.9386 30.143C94.6936 30.2401 94.5763 30.5111 94.6764 30.7487L94.8282 31.1134C94.9283 31.351 95.2078 31.4648 95.4528 31.3678L96.4398 30.9796L96.0257 31.9299C95.9222 32.1675 96.0361 32.4386 96.2811 32.539L96.6538 32.6929C96.8988 32.7933 97.1784 32.6828 97.2819 32.4453L97.696 31.4949L98.0964 32.452C98.1964 32.6895 98.476 32.8033 98.721 32.7063L99.0972 32.559C99.3422 32.462 99.4595 32.1909 99.3594 31.9534L98.9591 30.9963L99.9392 31.3979C100.184 31.4983 100.464 31.3878 100.567 31.1503L100.726 30.7889C100.83 30.5513 100.716 30.2802 100.471 30.1798V30.1832Z" fill="#212121"/>
</svg>
